<svg xmlns="http://www.w3.org/2000/svg" viewBox="0 0 405.05 412"><defs><style>.cls-1{font-size:24px;font-family:Futura-Medium, Futura Medium;font-weight:500;}.cls-2{font-size:60px;font-family:Baskerville-BoldItalic, Baskerville BoldItalic;font-weight:700;font-style:italic;}.cls-3{letter-spacing:-0.04em;}</style></defs><title>Asset 2</title><g id="Layer_2" data-name="Layer 2"><g id="Layer_1-2" data-name="Layer 1"><text class="cls-1" transform="translate(399.14 186.32) rotate(-97.33)">1</text><text class="cls-1" transform="matrix(-0.19, -0.98, 0.98, -0.19, 397.46, 173.45)">5</text><text class="cls-1" transform="matrix(-0.24, -0.97, 0.97, -0.24, 394.92, 160.93)"> </text><text class="cls-1" transform="translate(393.65 155.73) rotate(-105.25)"> </text><text class="cls-1" transform="matrix(-0.31, -0.95, 0.95, -0.31, 392.28, 150.28)">A</text><text class="cls-1" transform="matrix(-0.39, -0.92, 0.92, -0.39, 387.4, 135.53)">N</text><text class="cls-1" transform="translate(380.89 120.29) rotate(-117.39)">C</text><text class="cls-1" transform="translate(374.38 107.65) rotate(-121.84)">O</text><text class="cls-1" transform="translate(365.36 93.22) rotate(-126.44)">A</text><text class="cls-1" transform="matrix(-0.64, -0.77, 0.77, -0.64, 357.36, 82.4)">T</text><text class="cls-1" transform="translate(349.39 72.89) rotate(-133.4)">S</text><text class="cls-1" transform="translate(340.9 64.03) rotate(-135.94)"> </text><text class="cls-1" transform="matrix(-0.74, -0.68, 0.68, -0.74, 337.04, 60.31)"> </text><text class="cls-1" transform="translate(333.01 56.52) rotate(-140)">S</text><text class="cls-1" transform="matrix(-0.8, -0.59, 0.59, -0.8, 323.44, 48.51)">T</text><text class="cls-1" transform="matrix(-0.84, -0.54, 0.54, -0.84, 313.31, 41.05)">R</text><text class="cls-1" transform="translate(301.86 33.74) rotate(-151.04)">E</text><text class="cls-1" transform="translate(290.98 27.75) rotate(-154.61)">E</text><text class="cls-1" transform="translate(279.34 22.26) rotate(-158.34)">T</text><text class="cls-1" transform="translate(267.82 17.77) rotate(-160.92)"> </text><text class="cls-1" transform="translate(262.74 16.02) rotate(-162.47)"> </text><text class="cls-1" transform="translate(257.6 14.39) rotate(-164.27)">•</text><text class="cls-1" transform="matrix(-0.97, -0.24, 0.24, -0.97, 250.76, 12.48)"> </text><text class="cls-1" transform="matrix(-0.98, -0.21, 0.21, -0.98, 245.57, 11.2)"> </text><text class="cls-1" transform="translate(240 9.76) rotate(-171.31)">M</text><text class="cls-1" transform="translate(220.25 6.88) rotate(-176.35)">A</text><text class="cls-1" transform="translate(204.83 5.89) rotate(179.07)">N</text><text class="cls-1" transform="matrix(-1, 0.09, -0.09, -1, 188.32, 6.21)">C</text><text class="cls-1" transform="translate(173.66 7.56) rotate(170.27)">H</text><text class="cls-1" transform="matrix(-0.97, 0.24, -0.24, -0.97, 157.53, 10.43)">E</text><text class="cls-1" transform="matrix(-0.95, 0.3, -0.3, -0.95, 145.45, 13.44)">S</text><text class="cls-1" transform="matrix(-0.93, 0.36, -0.36, -0.93, 133.56, 17.2)">T</text><text class="cls-1" transform="translate(121.85 21.75) rotate(155.29)">E</text><text class="cls-1" transform="translate(110.51 26.97) rotate(151.54)">R</text><text class="cls-1" transform="translate(98.79 33.44) rotate(148.82)"> </text><text class="cls-1" transform="matrix(-0.84, 0.54, -0.54, -0.84, 94.17, 36.23)">•</text><text class="cls-1" transform="matrix(-0.82, 0.57, -0.57, -0.82, 88.23, 40.1)"> </text><text class="cls-1" transform="translate(83.4 43.2) rotate(141.59)">M</text><text class="cls-1" transform="matrix(-0.73, 0.68, -0.68, -0.73, 67.73, 55.86)">3</text><text class="cls-1" transform="translate(58.28 64.75) rotate(133.15)">3</text><text class="cls-1" transform="translate(7.91 262.26) rotate(71.82)">B</text><text class="cls-1" transform="translate(12.21 275.28) rotate(67.88)">R</text><text class="cls-1" transform="translate(17.4 288.05) rotate(63.66)">A</text><text class="cls-1" transform="translate(24.29 301.93) rotate(59.05)">N</text><text class="cls-1" transform="translate(32.89 316.21) rotate(54.26)">D</text><text class="cls-1" transform="translate(42.67 329.52) rotate(51.1)"> </text><text class="cls-1" transform="translate(46.13 334.04) rotate(47.85)">O</text><text class="cls-1" transform="matrix(0.73, 0.68, -0.68, 0.73, 57.85, 346.9)">N</text><text class="cls-1" transform="matrix(0.78, 0.63, -0.63, 0.78, 69.97, 358.07)">L</text><text class="cls-1" transform="matrix(0.81, 0.59, -0.59, 0.81, 79.19, 365.43)">I</text><text class="cls-1" transform="translate(84.2 369.27) rotate(33.14)">N</text><text class="cls-1" transform="matrix(0.87, 0.48, -0.48, 0.87, 98.1, 378.23)">E</text><text class="cls-1" transform="translate(108.87 384.1) rotate(26.41)"> </text><text class="cls-1" transform="translate(113.79 386.61) rotate(23.85)">S</text><text class="cls-1" transform="translate(125.21 391.64) rotate(20.24)">T</text><text class="cls-1" transform="translate(136.45 395.87) rotate(16.11)">O</text><text class="cls-1" transform="matrix(0.98, 0.2, -0.2, 0.98, 153.14, 400.59)">R</text><text class="cls-1" transform="translate(166.44 403.28) rotate(7.89)">E</text><text class="cls-1" transform="translate(178.6 404.88) rotate(5.35)"> </text><text class="cls-1" transform="translate(184.2 405.54) rotate(2.23)">N</text><text class="cls-1" transform="translate(200.67 406.13) rotate(-2.26)">A</text><text class="cls-1" transform="translate(216.18 405.59) rotate(-7.32)">M</text><text class="cls-1" transform="matrix(0.98, -0.21, 0.21, 0.98, 236.09, 402.84)">E</text><text class="cls-1" transform="matrix(0.97, -0.25, 0.25, 0.97, 248.08, 400.2)"> </text><text class="cls-1" transform="translate(253.54 398.89) rotate(-17.6)">A</text><text class="cls-1" transform="translate(268.33 394.19) rotate(-22.23)">N</text><text class="cls-1" transform="translate(283.73 387.86) rotate(-27.06)">D</text><text class="cls-1" transform="translate(298.4 380.18) rotate(-30.25)"> </text><text class="cls-1" transform="translate(303.21 377.45) rotate(-32.79)">S</text><text class="cls-1" transform="matrix(0.81, -0.59, 0.59, 0.81, 313.68, 370.68)">T</text><text class="cls-1" transform="translate(323.9 363.2) rotate(-40.49)">U</text><text class="cls-1" transform="matrix(0.71, -0.7, 0.7, 0.71, 336.19, 352.58)">F</text><text class="cls-1" transform="matrix(0.67, -0.74, 0.74, 0.67, 344.94, 343.93)">F</text><text class="cls-1" transform="matrix(0.63, -0.77, 0.77, 0.63, 352.99, 334.85)"> </text><text class="cls-1" transform="translate(356.38 330.71) rotate(-52.12)"> </text><text class="cls-2" transform="translate(111.83 225.91)"><tspan class="cls-3">L</tspan><tspan x="25.98" y="0">OGO</tspan></text></g></g></svg>