<svg xmlns="http://www.w3.org/2000/svg" viewBox="0 0 97.97 95.7"><defs><style>.cls-1{fill:#ed3624;}</style></defs><title>Asset 4</title><g id="Layer_2" data-name="Layer 2"><g id="Layer_1-2" data-name="Layer 1"><path class="cls-1" d="M80.12,57.11A34.78,34.78,0,0,0,57,40.67a14.26,14.26,0,0,0-5-.31,10.68,10.68,0,0,0-6.27,3.27,10.56,10.56,0,0,0-2.94,7,10.69,10.69,0,0,0,1.85,6.51,11.66,11.66,0,0,0,4.37,3.75,6.82,6.82,0,0,1-6.54,12,17.29,17.29,0,0,1-6-5.06A17.07,17.07,0,0,1,33,55.2a16.63,16.63,0,0,1,3.11-7.94,17.06,17.06,0,0,1,10.43-6.85,12.7,12.7,0,0,0,3.15-.93,9,9,0,0,0,2.64-14.16,4.89,4.89,0,0,1-1-5.35,5.18,5.18,0,0,0,.27-2.83,4.79,4.79,0,0,0-1.48-2.67c0,.24,0,.45,0,.65A5,5,0,0,1,47.94,19a7,7,0,0,0-2.56,7.85,9,9,0,0,0,1.93,3,6.62,6.62,0,0,1-1,9.59A8.15,8.15,0,0,1,43,40.78,34.48,34.48,0,0,0,20.28,57.11a.43.43,0,0,0,0,.52A34.69,34.69,0,0,0,37.42,72.27a33.59,33.59,0,0,0,7.7,2.07h0l1,.13c.28,0,.57,0,.86,0s.68,0,1,0l.15,0a10,10,0,0,0,1.33-.21l.35-.09h0a10.07,10.07,0,0,0,4.64-2.61,10.46,10.46,0,0,0,3-10.44,10.35,10.35,0,0,0-5.54-7,6.79,6.79,0,0,1,5.47-12.43,15,15,0,0,1,5.11,3.61A17.36,17.36,0,0,1,59.3,72.14a17.8,17.8,0,0,1-7.11,2.53c.76-.08,1.52-.14,2.28-.23a33.38,33.38,0,0,0,10.35-3A34.64,34.64,0,0,0,80.1,57.64.45.45,0,0,0,80.12,57.11Z" transform="translate(-0.08 -2.14)"/><path d="M60,3l1.7.49.27,3.86c0,.5,0,1,0,1.56H62c.29-.43.57-.88.86-1.3l2.24-3.14,1.7.49-2.16,7.53-1.4-.4L64.15,9c.2-.72.63-1.74.91-2.43l0,0-1.12,1.6-2,2.78L61,10.66l-.25-3.44-.1-1.94,0,0c-.14.74-.31,1.83-.52,2.55l-.88,3.07-1.38-.4Z" transform="translate(-0.08 -2.14)"/><path d="M67.54,9.37c1.19-2.25,3.14-2.9,5-1.93s2.42,3,1.24,5.2-3.17,3-5,2S66.36,11.63,67.54,9.37Zm4.77,2.51c.77-1.47.58-2.68-.43-3.21s-2.12,0-2.89,1.47-.61,2.73.4,3.26S71.53,13.34,72.31,11.88Z" transform="translate(-0.08 -2.14)"/><path d="M77.77,10.71l1.25,1-1.93,2.4,2.27,1.83,1.93-2.4,1.25,1-4.91,6.11-1.25-1L78.49,17,76.22,15.2l-2.11,2.62-1.25-1Z" transform="translate(-0.08 -2.14)"/><path d="M84.6,16.6l3.21,3.64-1,.89-2.16-2.44L79.79,23l-1.06-1.2Z" transform="translate(-0.08 -2.14)"/><path d="M85.49,23.49c2.15-1.36,4.17-.95,5.28.81s.61,3.77-1.53,5.12-4.23,1-5.34-.78S83.33,24.85,85.49,23.49ZM88.36,28c1.4-.89,1.85-2,1.24-3s-1.84-1.05-3.24-.17-1.9,2.07-1.29,3S87,28.92,88.36,28Z" transform="translate(-0.08 -2.14)"/><path d="M85.9,31.49l1.45-.26a1.15,1.15,0,0,0,.07.33c.15.37.44.56,2.18.27,1.51-.26,3-.58,4.54-.89l1.63,4.11-7.28,2.89-.59-1.49,6-2.39-.59-1.48c-1.18.25-2.26.46-3.37.68-2.58.49-3.43.17-3.87-.93A2.39,2.39,0,0,1,85.9,31.49Z" transform="translate(-0.08 -2.14)"/><path d="M89.41,41.62l1.42.08a1.37,1.37,0,0,0,0,.58.83.83,0,0,0,.53.74l.29.08L97,39.61l.25,1.68-2.37,1.4-1.69.89v.05L95.1,44l2.66.55L98,46.11l-6.43-1.52c-1.2-.29-2-.85-2.16-2A2.53,2.53,0,0,1,89.41,41.62Z" transform="translate(-0.08 -2.14)"/><path d="M90.23,46l1.44.31a1.09,1.09,0,0,0-.06.34c0,.39.19.68,1.9,1.08,1.5.34,3,.62,4.54.93L98,53.1,90.15,53l0-1.6,6.49.11,0-1.59-3.37-.67c-2.57-.54-3.23-1.16-3.22-2.35A2.45,2.45,0,0,1,90.23,46Z" transform="translate(-0.08 -2.14)"/><path d="M93.9,54.86c2.54.45,3.74,2.36,3.39,4.31a3.26,3.26,0,0,1-1.4,2.1l-.86-1A2,2,0,0,0,95.92,59c.2-1.15-.63-2.19-2.26-2.48s-2.79.3-3,1.5a2.11,2.11,0,0,0,.47,1.71L90,60.35a3.2,3.2,0,0,1-.69-2.67C89.65,55.73,91.32,54.39,93.9,54.86Z" transform="translate(-0.08 -2.14)"/><path d="M93.68,70l-.6,1.49-7.27-2.92.6-1.49Zm2.45-6.1-.6,1.48-2.72-1.09-.33.81c-.65,1.63-1.75,2.55-3.32,1.92s-1.86-2.15-1.22-3.77L88.86,61Zm-7-.27c-.38.94-.27,1.61.55,1.93s1.23-.08,1.63-1.07l.27-.68L89.44,63Z" transform="translate(-0.08 -2.14)"/><path d="M91.48,74.29l-.9,1.33L88,73.88l-1.64,2.41L88.94,78,88,79.34l-6.47-4.41.9-1.32,2.78,1.89,1.64-2.4L84.1,71.2l.9-1.32Z" transform="translate(-0.08 -2.14)"/><path d="M76.92,76.66,78,75.72l1.83,1.85.66.74-5.66,5-.66-.74-1.62-2,1.06-1,1.5,1.69,3.32-3Zm3.21,8.85,1.25-1.11c-.55-.89-.86-1.36-1.4-2.27-1.18-2-1.45-3.32-.63-4.13l.86.55c-.17.33,0,1.09,1,2.79.73,1.23,1.17,1.93,2,3.25l-3.36,3L75,82.09,76.16,81Z" transform="translate(-0.08 -2.14)"/><path d="M73.56,85.85l4.65,3-1.45.91-1.66-1.2-1.48-1.12,0,0c.12.63.21,1.22.33,1.83l.35,2-1.41.89-.64-5.48L70.7,84.28l1.35-.84Z" transform="translate(-0.08 -2.14)"/><path d="M71.23,93l-2.38,1c-1.59.67-3.07.64-3.8-1.08s.23-2.92,1.77-3.57l1-.41L66.7,86.38l1.48-.62Zm-3.81-2.52c-1,.42-1.27,1-.92,1.84s1,.88,2,.47l.81-.34-1-2.33Z" transform="translate(-0.08 -2.14)"/><path d="M63.17,92c.59,2.51-.68,4.37-2.61,4.83a3.22,3.22,0,0,1-2.48-.45l.59-1.19a2,2,0,0,0,1.54.3c1.13-.27,1.75-1.45,1.37-3.06S60.19,89.94,59,90.22a2.17,2.17,0,0,0-1.37,1.11l-1.06-.78a3.24,3.24,0,0,1,2.17-1.69C60.67,88.41,62.56,89.4,63.17,92Z" transform="translate(-0.08 -2.14)"/><path d="M56.5,89.59l-.21,1.46A1.12,1.12,0,0,0,56,91c-.4,0-.67.23-.94,2-.23,1.52-.4,3-.59,4.6L50,97.84,49.56,90l1.6-.09.37,6.48,1.59-.09c.14-1.19.27-2.29.42-3.41.34-2.6.92-3.31,2.1-3.38A2.47,2.47,0,0,1,56.5,89.59Z" transform="translate(-0.08 -2.14)"/><path d="M48.52,91l-1,.9A2.37,2.37,0,0,0,46,91c-1.2-.14-2,.58-2.25,2.46s.41,2.71,1.65,2.86A2.25,2.25,0,0,0,47,95.8l.72,1.12a3.65,3.65,0,0,1-2.58.71c-2-.23-3.3-1.75-3-4.47s2-3.82,3.95-3.59A3.41,3.41,0,0,1,48.52,91Zm-2.05,3.5-3.55-.42.16-1.33,3.55.42Z" transform="translate(-0.08 -2.14)"/><path d="M39.26,92.59l1,4.22-1.71-.48-.31-1.75c-.08-.39-.13-.81-.22-1.34h0c-.31.41-.57.74-.83,1L36,95.62l-1.63-.46,3-3.17-1-4.41,1.71.48.36,1.88c.09.44.16.88.24,1.4h0c.31-.41.6-.74.88-1.08l1.25-1.43,1.64.46Z" transform="translate(-0.08 -2.14)"/><path d="M33.56,86.39l-.91,1.09a1.49,1.49,0,0,0-.46-.35.83.83,0,0,0-.91,0l-.25.18-.38,6.39-1.5-.79.29-2.74.28-1.89,0,0-1.38,1.3-2,1.81-1.41-.75,5-4.26a2.41,2.41,0,0,1,2.9-.55A2.63,2.63,0,0,1,33.56,86.39Z" transform="translate(-0.08 -2.14)"/><path d="M23.32,89.57,21.25,88c-1.37-1-2.07-2.34-.95-3.82s2.66-1.26,4-.24l.82.63,1.67-2.2,1.28,1ZM23.6,85c-.84-.65-1.51-.6-2.05.11s-.28,1.29.56,1.93l.7.53,1.53-2Z" transform="translate(-0.08 -2.14)"/><path d="M24.12,80.47l-1.25.79a1.16,1.16,0,0,0-.19-.28c-.28-.29-.62-.36-2.11.57-1.31.81-2.56,1.66-3.88,2.53l-3.06-3.19,5.65-5.42,1.11,1.15L15.7,81.11l1.1,1.15,2.87-1.9c2.2-1.42,3.12-1.44,3.93-.59A2.29,2.29,0,0,1,24.12,80.47Z" transform="translate(-0.08 -2.14)"/><path d="M11,77.33,9.93,75.76,15,69.32l.94,1.4L13.23,73.9c-.54.64-1.18,1.32-1.75,2l0,0c.81-.3,1.68-.62,2.48-.88l4-1.34.9,1.36Zm4.34-1.79-2.08-3.1,1-.69,2.07,3.1Z" transform="translate(-0.08 -2.14)"/><path d="M7.72,72l-2-4.4,1.21-.56L8.27,70l5.88-2.74.67,1.45Z" transform="translate(-0.08 -2.14)"/><path d="M4.85,65.48,4.43,64l3-.81c.87-.23,1.91-.39,2.72-.53v0l-1.84-.31L3.67,61.18l-.44-1.63,7.56-2.06L11.21,59l-3,.81c-.87.24-1.87.38-2.71.53v0l1.84.31L12,61.79l.45,1.63Z" transform="translate(-0.08 -2.14)"/><path d="M.38,55.61l-.1-1.34c.49-.06.8-.29.77-.77s-.38-.67-.88-.66L.08,51.5c.92,0,1.67.46,1.77,1.94S1.29,55.5.38,55.61Zm2.34.89L2.6,54.93l3.05-.22c.9-.07,1.95,0,2.78,0v-.05L6.68,54,2.4,52.06l-.13-1.68,7.81-.57.12,1.57-3.07.23c-.89.06-1.9,0-2.75,0v0l1.74.67,4.29,1.93.12,1.69Z" transform="translate(-0.08 -2.14)"/><path d="M2.34,47.36l.18-1.59,3.06.36.33-2.89-3.05-.36L3,41.29l7.78.91-.18,1.59L7.3,43.4,7,46.29l3.34.39-.18,1.59Z" transform="translate(-0.08 -2.14)"/><path d="M5,34.37l.65-1.78,8.21.34-.58,1.59L9,34.16c-.83-.06-1.76-.17-2.62-.25l0,0c.73.48,1.5,1,2.17,1.49L12,37.87l-.56,1.53Zm4,2.45,1.28-3.5,1.17.43-1.28,3.5Z" transform="translate(-0.08 -2.14)"/><path d="M7.32,28.53l.8-1.39,2.71,1.56.94-1.65,5.53-.19-.84,1.47-4,.17-.48.84,3,1.7-.8,1.38Zm4.16-.4L10.23,26C9.59,25,9.56,24.33,10,23.59a1.48,1.48,0,0,1,.38-.47l1.12.95a1.66,1.66,0,0,0-.2.26c-.17.31-.14.57.22,1.17l.93,1.58Z" transform="translate(-0.08 -2.14)"/><path d="M12.65,20.27l1.2-1.46,7.64,3.05-1.08,1.3-3.83-1.73c-.76-.33-1.61-.74-2.39-1.1l0,0c.52.7,1.08,1.44,1.55,2.13l2.43,3.43-1,1.27Zm3,3.65L18,21l1,.79-2.37,2.88Z" transform="translate(-0.08 -2.14)"/><path d="M21.06,13.67l-1.27,1.08c.53.9.83,1.38,1.36,2.3,1.13,2,1.37,3.35.53,4.14l-.85-.57c.19-.32.05-1.09-.92-2.81-.71-1.25-1.13-1.95-1.92-3.29l3.42-2.91,4.75,5.59-1.22,1Zm3,8.91L23,23.5l-1.8-1.9-.64-.75L26.33,16l.64.75,1.58,2.08-1.08.92L26,18l-3.39,2.88Z" transform="translate(-0.08 -2.14)"/><path d="M23.91,9.89l4.15-2.45.68,1.15L26,10.23l.9,1.53,2.36-1.4.68,1.16-2.35,1.39,1,1.75L31.46,13l.68,1.16-4.25,2.51Z" transform="translate(-0.08 -2.14)"/><path d="M30.54,6.16l1.66-.6,2.48,3c.32.4.63.83,1,1.24l0,0c0-.52-.06-1.05-.07-1.55l0-3.86,1.66-.6,2.67,7.36-1.37.49-1.09-3c-.25-.7-.5-1.77-.69-2.5l0,0,0,2,0,3.44-.86.31L33.65,9.17,32.44,7.65l0,0c.33.67.82,1.66,1.08,2.36l1.08,3-1.34.49Z" transform="translate(-0.08 -2.14)"/><path d="M40.29,3l1.56-.23.44,3c.13.89.15,2,.19,2.77h.05l.54-1.79L44.7,2.38l1.67-.24,1.12,7.75-1.57.23-.44-3c-.13-.89-.14-1.9-.19-2.75h0L44.7,6.11l-1.62,4.42-1.68.24Z" transform="translate(-0.08 -2.14)"/><path d="M51.12,6.75a1.54,1.54,0,1,1,3.07.17,1.54,1.54,0,1,1-3.07-.17Z" transform="translate(-0.08 -2.14)"/></g></g></svg>