<svg xmlns="http://www.w3.org/2000/svg" viewBox="0 0 60 60.2"><defs><style>.cls-1{fill:#ed3624;}</style></defs><title>Asset 3</title><g id="Layer_2" data-name="Layer 2"><g id="Layer_1-2" data-name="Layer 1"><path class="cls-1" d="M59.92,42.64A34.78,34.78,0,0,0,36.75,26.2a14.25,14.25,0,0,0-5-.31,10.63,10.63,0,0,0-6.26,3.27,10.47,10.47,0,0,0-2.94,7,10.63,10.63,0,0,0,1.85,6.51,11.63,11.63,0,0,0,4.36,3.75,6.82,6.82,0,0,1-6.54,12,17.35,17.35,0,0,1-6-5.06,17,17,0,0,1-3.37-12.61,16.55,16.55,0,0,1,3.12-7.94,17,17,0,0,1,10.42-6.85A12.9,12.9,0,0,0,29.48,25a9,9,0,0,0,2.64-14.16,4.86,4.86,0,0,1-1-5.35,5.27,5.27,0,0,0,.26-2.83A4.77,4.77,0,0,0,29.89,0c0,.24,0,.45,0,.65A5,5,0,0,1,27.74,4.5a7,7,0,0,0-2.56,7.85,9,9,0,0,0,1.93,3,6.62,6.62,0,0,1-1,9.59,8.15,8.15,0,0,1-3.28,1.34A34.48,34.48,0,0,0,.09,42.64a.42.42,0,0,0,0,.52A34.69,34.69,0,0,0,17.22,57.8a33.72,33.72,0,0,0,7.7,2.07h0L26,60c.28,0,.57,0,.86,0s.68,0,1,0L28,60a9.7,9.7,0,0,0,1.33-.21l.35-.09h0a10.07,10.07,0,0,0,4.64-2.61,10.46,10.46,0,0,0,3.05-10.44,10.33,10.33,0,0,0-5.54-7,6.8,6.8,0,0,1,5.48-12.43,15.19,15.19,0,0,1,5.11,3.61A16.9,16.9,0,0,1,46.94,46.6,16.74,16.74,0,0,1,39.1,57.67,17.74,17.74,0,0,1,32,60.2c.76-.08,1.52-.14,2.28-.23a33.38,33.38,0,0,0,10.35-3A34.59,34.59,0,0,0,59.9,43.17.45.45,0,0,0,59.92,42.64Z"/></g></g></svg>