<svg xmlns="http://www.w3.org/2000/svg" viewBox="0 0 143.32 146.1"><defs><style>.cls-1{fill:none;stroke:#323335;stroke-miterlimit:10;}.cls-2{font-size:18px;font-family:Inter-SemiBold, Inter;font-weight:600;}.cls-2,.cls-3{fill:#1e1e1e;}</style></defs><title>ro</title><g id="Layer_2" data-name="Layer 2"><g id="Layer_1-2" data-name="Layer 1"><path class="cls-1" d="M69.5,142.79a69,69,0,1,1,69-69A69.07,69.07,0,0,1,69.5,142.79Zm0-112a43,43,0,1,0,43,43A43,43,0,0,0,69.5,30.79Z"/><text class="cls-2" transform="matrix(0.78, -0.63, 0.63, 0.78, 31.89, 39.85)">М</text><text class="cls-2" transform="translate(46.99 28.58) rotate(-18.46)">Д</text><text class="cls-2" transform="translate(62.95 23.87) rotate(-0.82)">У</text><text class="cls-2" transform="matrix(0.97, 0.26, -0.26, 0.97, 76.21, 23.8)">А</text><text class="cls-2" transform="matrix(0.83, 0.55, -0.55, 0.83, 91.25, 28.23)">Д</text><text class="cls-2" transform="translate(104.82 37.77) rotate(52.01)">С</text><text class="cls-2" transform="matrix(0.41, 0.91, -0.91, 0.41, 114.11, 51.07)">	</text><text class="cls-2" transform="translate(115.4 93.76) rotate(116.12)"> </text><text class="cls-2" transform="matrix(-0.57, 0.82, -0.82, -0.57, 111.85, 100.46)"> </text><text class="cls-2" transform="translate(107.34 106.55) rotate(133.4)"> </text><text class="cls-2" transform="translate(101.95 111.9) rotate(142.09)"> </text><text class="cls-2" transform="translate(96.01 116.42) rotate(153.07)">1</text><text class="cls-2" transform="translate(85.7 121.46) rotate(167.95)">9</text><text class="cls-2" transform="matrix(-1, -0.08, 0.08, -1, 71.55, 124.11)">4</text><text class="cls-2" transform="translate(56.91 122.53) rotate(-158.98)">5</text><text class="cls-2" transform="matrix(-0.83, -0.55, 0.55, -0.83, 43.85, 116.77)"> </text><text class="cls-2" transform="translate(37.66 112.41) rotate(-137.97)"> </text><circle class="cls-3" cx="13.31" cy="75.74" r="1.95"/><circle class="cls-3" cx="126.5" cy="75.74" r="1.95"/></g></g></svg>