<svg xmlns="http://www.w3.org/2000/svg" viewBox="0 0 113.53 113.55"><defs><style>.cls-1{font-size:8px;fill:#323335;font-family:SegoeUI-Semibold, Segoe UI;font-weight:600;}</style></defs><title>rotating_1</title><g id="Layer_2" data-name="Layer 2"><g id="Layer_1-2" data-name="Layer 1"><text class="cls-1" transform="matrix(0.8, -0.59, 0.59, 0.8, 24.73, 18.29)">Д</text><text class="cls-1" transform="translate(29.37 14.95) rotate(-32.15)">.</text><text class="cls-1" transform="translate(30.88 13.92) rotate(-28.08)">А</text><text class="cls-1" transform="translate(35.46 11.39) rotate(-20.9)">М</text><text class="cls-1" transform="matrix(0.97, -0.25, 0.25, 0.97, 42.25, 8.89)">Г</text><text class="cls-1" transform="matrix(0.99, -0.17, 0.17, 0.99, 45.43, 8.01)">А</text><text class="cls-1" transform="matrix(1, -0.06, 0.06, 1, 50.91, 7.06)">Л</text><text class="cls-1" transform="translate(56.34 6.73) rotate(2.56)">А</text><text class="cls-1" transform="translate(61.58 6.94) rotate(8.82)">Н</text><text class="cls-1" transform="translate(67.24 7.86) rotate(14.3)">Г</text><text class="cls-1" transform="translate(70.91 8.73) rotate(19.93)">И</text><text class="cls-1" transform="translate(76.54 10.76) rotate(26.82)">Й</text><text class="cls-1" transform="matrix(0.83, 0.55, -0.55, 0.83, 81.88, 13.46)">Н</text><text class="cls-1" transform="translate(86.67 16.71) rotate(38.03)"> </text><text class="cls-1" transform="matrix(0.74, 0.68, -0.68, 0.74, 88.37, 17.95)">Н</text><text class="cls-1" transform="translate(92.57 21.82) rotate(48.5)">Э</text><text class="cls-1" transform="matrix(0.59, 0.81, -0.81, 0.59, 95.77, 25.45)">Р</text><text class="cls-1" transform="matrix(0.51, 0.86, -0.86, 0.51, 98.48, 29.13)">Э</text><text class="cls-1" transform="translate(100.99 33.19) rotate(66.11)">М</text><text class="cls-1" transform="matrix(0.27, 0.96, -0.96, 0.27, 103.93, 39.77)">Ж</text><text class="cls-1" transform="translate(105.83 46.73) rotate(81.99)">И</text><text class="cls-1" transform="matrix(0.04, 1, -1, 0.04, 106.63, 52.68)">Т</text><text class="cls-1" transform="matrix(-0.03, 1, -1, -0.03, 106.76, 57.01)"> </text><text class="cls-1" transform="translate(106.73 59.13) rotate(94.51)">•</text><text class="cls-1" transform="translate(106.46 62.35) rotate(97.56)"> </text><text class="cls-1" transform="translate(106.31 64.43) rotate(102.93)">М</text><text class="cls-1" transform="matrix(-0.35, 0.94, -0.94, -0.35, 104.66, 71.46)">О</text><text class="cls-1" transform="translate(102.61 76.98) rotate(117.16)">Н</text><text class="cls-1" transform="matrix(-0.54, 0.84, -0.84, -0.54, 99.95, 82.06)">Г</text><text class="cls-1" transform="matrix(-0.62, 0.79, -0.79, -0.62, 98.04, 85.17)">О</text><text class="cls-1" transform="translate(94.43 89.78) rotate(134.4)">Л</text><text class="cls-1" transform="translate(90.55 93.66) rotate(138.71)"> </text><text class="cls-1" transform="translate(89.02 95.07) rotate(142.52)">У</text><text class="cls-1" transform="translate(85.78 97.61) rotate(147.72)">Л</text><text class="cls-1" transform="translate(81.17 100.51) rotate(153.62)">С</text><text class="cls-1" transform="translate(76.87 102.71) rotate(160.16)">Ы</text><text class="cls-1" transform="translate(70.76 104.9) rotate(167.18)">Н</text><text class="cls-1" transform="translate(65.11 106.11) rotate(171.72)"> </text><text class="cls-1" transform="matrix(-1, 0.07, -0.07, -1, 63.04, 106.49)">Д</text><text class="cls-1" transform="translate(57.35 106.85) rotate(-178.07)">Ү</text><text class="cls-1" transform="matrix(-0.99, -0.12, 0.12, -0.99, 52.86, 106.7)">Р</text><text class="cls-1" transform="matrix(-0.98, -0.22, 0.22, -0.98, 48.38, 106.16)">С</text><text class="cls-1" transform="matrix(-0.95, -0.31, 0.31, -0.95, 43.66, 105.15)">Л</text><text class="cls-1" transform="translate(38.49 103.42) rotate(-155.74)">Э</text><text class="cls-1" transform="translate(34.2 101.5) rotate(-150.34)">Х</text><text class="cls-1" transform="matrix(-0.83, -0.55, 0.55, -0.83, 29.99, 99.06)"> </text><text class="cls-1" transform="translate(28.23 97.93) rotate(-142.52)">У</text><text class="cls-1" transform="translate(24.57 95.14) rotate(-137.31)">Р</text><text class="cls-1" transform="translate(21.54 92.4) rotate(-132.14)">Л</text><text class="cls-1" transform="translate(17.89 88.37) rotate(-126.06)">А</text><text class="cls-1" transform="translate(14.81 84.1) rotate(-120.87)">Г</text><text class="cls-1" transform="translate(12.81 80.87) rotate(-115.25)">И</text><text class="cls-1" transform="translate(10.25 75.47) rotate(-108.36)">Й</text><text class="cls-1" transform="translate(8.37 69.79) rotate(-101.61)">Н</text><text class="cls-1" transform="translate(7.27 64.14) rotate(-97.11)"> </text><text class="cls-1" transform="matrix(-0.05, -1, 1, -0.05, 6.95, 62.05)">А</text><text class="cls-1" transform="translate(6.69 56.82) rotate(-87.28)">К</text><text class="cls-1" transform="translate(6.9 52.07) rotate(-81.58)">А</text><text class="cls-1" transform="translate(7.71 46.58) rotate(-74.93)">Д</text><text class="cls-1" transform="matrix(0.35, -0.94, 0.94, 0.35, 9.23, 41.08)">Е</text><text class="cls-1" transform="matrix(0.46, -0.89, 0.89, 0.46, 10.54, 37.31)">М</text><text class="cls-1" transform="translate(13.86 30.9) rotate(-55.31)">И</text><text class="cls-1" transform="matrix(0.63, -0.77, 0.77, 0.63, 17.35, 25.99)"> </text><text class="cls-1" transform="translate(18.69 24.33) rotate(-47.63)">•</text></g></g></svg>