<svg xmlns="http://www.w3.org/2000/svg" viewBox="0 0 149.05 148.98"><defs>
<style>.cls-1{fill:#ed3132;}.cls-2{font-size:20px;font-family:SegoeUI-Semibold, Segoe UI;font-weight:600;}</style></defs><title>Asset 1</title>
<g id="Layer_2" data-name="Layer 2"><g id="Layer_1-2" data-name="Layer 1">
<path class="cls-1" d="M106.79,80a36.81,36.81,0,0,0-24.52-17.4,15.18,15.18,0,0,0-5.33-.33,11.3,11.3,0,0,0-6.63,3.47,11.1,11.1,0,0,0-3.11,7.4,11.25,11.25,0,0,0,2,6.89,12.46,12.46,0,0,0,4.61,4,7.22,7.22,0,0,1-6.92,12.67,18.42,18.42,0,0,1-9.94-18.7,17.52,17.52,0,0,1,3.3-8.39,18,18,0,0,1,11-7.25,14.17,14.17,0,0,0,3.33-1,9.52,9.52,0,0,0,2.8-15,5.15,5.15,0,0,1-1.08-5.66,5.5,5.5,0,0,0,.28-3A5.09,5.09,0,0,0,75,34.84c0,.25,0,.47,0,.69a5.35,5.35,0,0,1-2.27,4.07A7.37,7.37,0,0,0,70,47.91a9.4,9.4,0,0,0,2,3.2A7,7,0,0,1,71,61.26a8.74,8.74,0,0,1-3.47,1.42A36.49,36.49,0,0,0,43.48,80a.46.46,0,0,0,0,.56A36.74,36.74,0,0,0,61.6,96a35.6,35.6,0,0,0,8.15,2.19h0l1.09.14c.31,0,.61,0,.92,0s.71,0,1.06,0l.16,0a13,13,0,0,0,1.41-.23L74.8,98h0a10.6,10.6,0,0,0,4.91-2.77,11.44,11.44,0,0,0-2.63-18.46A7.19,7.19,0,0,1,82.87,63.6a15.86,15.86,0,0,1,5.41,3.82,18.38,18.38,0,0,1-3.53,28.44,18.87,18.87,0,0,1-7.51,2.68c.8-.08,1.6-.15,2.41-.25A35.42,35.42,0,0,0,90.6,95.17a36.75,36.75,0,0,0,16.17-14.65A.47.47,0,0,0,106.79,80Z"/>
<text class="cls-2" transform="matrix(0.96, 0.29, -0.29, 0.96, 82.25, 16.67)">M</text>
<text class="cls-2" transform="translate(99.1 21.85) rotate(32.56)">O</text>
<text class="cls-2" transform="translate(111.27 29.49) rotate(46.81)">N</text>
<text class="cls-2" transform="translate(121.26 40.12) rotate(60.53)">G</text>
<text class="cls-2" transform="translate(127.9 51.56) rotate(74.28)">O</text>
<text class="cls-2" transform="translate(131.62 65.53) rotate(86.01)">L</text>
<text class="cls-2" transform="translate(132.17 74.84) rotate(93.22)">I</text>
<text class="cls-2" transform="translate(132.21 80.21) rotate(102.28)">A</text>
<text class="cls-2" transform="translate(129.71 92.65) rotate(115.88)">N</text>
<text class="cls-2" transform="translate(122.93 105.76) rotate(125.68)"> </text>
<text class="cls-2" transform="matrix(-0.7, 0.71, -0.71, -0.7, 120.28, 110.04)">A</text><text class="cls-2" transform="matrix(-0.83, 0.55, -0.55, -0.83, 111.55, 118.98)">C</text><text class="cls-2" transform="translate(101.83 125.6) rotate(158.55)">A</text><text class="cls-2" transform="matrix(-0.99, 0.14, -0.14, -0.99, 90.05, 130.37)">D</text><text class="cls-2" transform="translate(76.47 132.22) rotate(-176.83)">E</text><text class="cls-2" transform="translate(66.79 132.25) rotate(-163.26)">M</text><text class="cls-2" transform="translate(49.95 126.83) rotate(-149.06)">Y</text><text class="cls-2" transform="translate(40.56 121) rotate(-141.09)"> </text><text class="cls-2" transform="translate(36.4 118.22) rotate(-131.45)">O</text><text class="cls-2" transform="matrix(-0.49, -0.87, 0.87, -0.49, 26.97, 107.25)">F</text><text class="cls-2" transform="translate(22.32 98.85) rotate(-112.31)"> </text><text class="cls-2" transform="translate(20.23 94.22) rotate(-104.96)">F</text><text class="cls-2" transform="translate(17.86 84.91) rotate(-97.47)">I</text><text class="cls-2" transform="matrix(0.04, -1, 1, 0.04, 16.72, 79.7)">N</text><text class="cls-2" transform="matrix(0.25, -0.97, 0.97, 0.25, 17.51, 65.07)">E</text><text class="cls-2" transform="matrix(0.37, -0.93, 0.93, 0.37, 20.11, 55.5)"> </text><text class="cls-2" transform="translate(21.67 50.72) rotate(-59.11)">A</text><text class="cls-2" transform="matrix(0.68, -0.73, 0.73, 0.68, 28.19, 39.78)">R</text><text class="cls-2" transform="translate(35.95 31.42) rotate(-36.45)">T</text><text class="cls-2" transform="matrix(0.9, -0.44, 0.44, 0.9, 44.33, 25.17)">S</text><text class="cls-2" transform="translate(53.77 20.7) rotate(-18.39)"> </text><text class="cls-2" transform="translate(58.69 19.05) rotate(-13.18)"> </text><text class="cls-2" transform="matrix(0.99, -0.12, 0.12, 0.99, 63.65, 17.79)">•</text></g></g></svg>